<svg width="368px" height="298px" viewBox="0 0 368 298" fill="none" xmlns="http://www.w3.org/2000/svg" transform="rotate(0) scale(1, 1)">
<path d="M147.214 2.99671L38.7369 111.47C37.6225 112.581 37.0034 114.088 37.0034 115.658V292.639C37.007 294.496 38.5034 295.996 40.3607 295.996H217.341C218.912 295.996 220.419 295.37 221.53 294.259L330.007 185.786C330.774 185.019 331.132 183.933 330.955 182.864C323.932 139.043 303.527 96.99 269.77 63.2332C236.006 29.4764 193.957 9.07095 150.132 2.04153C149.064 1.87172 147.978 2.22903 147.21 2.99671" fill="#2ea4ff"/>
<path d="M147.214 2.99671L38.7369 111.47C37.6225 112.581 37.0034 114.088 37.0034 115.658V292.639C37.007 294.496 38.5034 295.996 40.3607 295.996H217.341C218.912 295.996 220.419 295.37 221.53 294.259L330.007 185.786C330.774 185.019 331.132 183.933 330.955 182.864C323.932 139.043 303.527 96.99 269.77 63.2332C236.006 29.4764 193.957 9.07095 150.132 2.04153C149.064 1.87172 147.978 2.22903 147.21 2.99671" stroke="#ffffff" stroke-width="2" stroke-linecap="round" stroke-linejoin="round"/>
<mask id="mask0_8177_91299" style="mask-type:luminance" maskUnits="userSpaceOnUse" x="37" y="2" width="294" height="294">
<path d="M147.214 2.99671L78.2884 71.9218L64.1518 69.2544L59.2308 90.9794L38.7369 111.473C37.6225 112.584 37.0034 114.091 37.0034 115.662V292.643C37.007 294.5 38.5034 296 40.3607 296H217.341C218.912 296 220.419 295.374 221.53 294.263L330.007 185.79C330.774 185.022 331.132 183.936 330.955 182.868C324.131 140.302 304.684 99.4027 272.636 66.1554C271.691 65.1754 271.037 51.8064 270.071 50.8371C261.513 42.2794 252.121 46.9775 242.604 40.1355C214.575 19.9883 182.849 7.28795 150.132 2.04153C149.064 1.87172 147.978 2.22903 147.21 2.99671" fill="#ffffff"/>
</mask>
<g mask="url(#mask0_8177_91299)">
<path d="M147.826 112.933L142.275 107.382L125.535 124.122L131.086 129.673L147.826 112.933Z" fill="#000000"/>
<path d="M187.158 88.4216C185.668 83.3025 174.999 79.1457 168.521 79.3721C143.081 80.2601 128.8 100.842 134.099 110.246C136.664 114.799 149.874 114.431 154.204 112.856C172.597 106.177 189.333 95.918 187.158 88.4216Z" fill="#ffffff"/>
<path d="M185.099 86.3698C179.969 83.345 168.525 84.8026 156.804 90.4169C143.212 96.9263 134.205 106.644 136.084 112.563" stroke="#2ea4ff" stroke-width="1.2" stroke-linecap="round" stroke-linejoin="round"/>
<path d="M174.243 110.577C184.649 105.593 191.359 97.9522 189.232 93.5098C187.104 89.0674 176.944 89.5059 166.539 94.4892C156.133 99.4725 149.422 107.113 151.55 111.556C153.677 115.998 163.837 115.56 174.243 110.577Z" fill="#2ea4ff" stroke="#2ea4ff" stroke-width="1.2" stroke-linecap="round" stroke-linejoin="round"/>
<path d="M140.892 121.432C134.676 113.897 127.098 109.882 123.967 112.464L77.1882 155.893L103.194 186.31L151.798 153.172C154.929 150.59 147.111 128.964 140.895 121.429L140.892 121.432Z" fill="#ffffff"/>
<path d="M145.384 158.475C148.515 155.893 140.697 134.267 134.481 126.731C128.265 119.196 120.171 114.937 117.04 117.519" stroke="#2ea4ff" stroke-width="1.2" stroke-linecap="round" stroke-linejoin="round"/>
<path d="M240.407 140.571L216.103 98.7448L170.629 96.647C165.578 97.825 160.374 100.27 156.157 102.916C152.807 105.017 150.146 108.045 148.491 111.636C141.691 126.371 137.856 145.513 139.926 171.749C141.581 192.717 146.824 210.412 150.39 217.212C183.231 227.149 216.075 237.087 248.915 247.024V187.778L240.407 140.575V140.571Z" fill="#ffffff" stroke="#2ea4ff" stroke-width="1.2" stroke-linecap="round" stroke-linejoin="round"/>
<path d="M187.352 85.4604C183.192 87.0064 178.703 89.497 174.74 92.4368C170.251 95.7658 167.516 100.949 167.124 106.524C162.939 165.724 208.504 155.157 226.331 152.486C231.793 145.892 234.945 147.169 240.411 140.571L216.107 98.7445L187.356 85.4604H187.352Z" fill="#ffffff" stroke="#2ea4ff" stroke-width="1.2" stroke-linecap="round" stroke-linejoin="round"/>
<path d="M189.673 115.107C191.297 117.742 194.99 122.907 201.708 126.53C206.127 128.911 210.241 129.76 212.969 130.089C215.527 124.701 218.081 119.317 220.639 113.929L189.673 115.11V115.107Z" fill="#2ea4ff"/>
<path d="M212.969 130.085C215.527 124.697 218.081 119.313 220.639 113.925L196.239 114.855L205.278 128.168C208.296 129.335 210.995 129.848 212.972 130.085H212.969Z" fill="#000000"/>
<path d="M180.687 110.458C173.293 97.379 186.906 74.7589 199.915 62.3062C202.409 59.9183 230.562 34.8324 254.286 47.8972C270.87 57.0315 278.055 80.5997 271.833 96.6467C264.867 114.597 191.205 129.063 180.687 110.461V110.458Z" fill="#ffffff" stroke="#2ea4ff" stroke-width="1.2" stroke-linecap="round" stroke-linejoin="round"/>
<path d="M233.36 116.147C230.512 108.721 231.103 96.6435 234.708 91.8853C236.47 91.1211 238.769 89.9148 241.157 88.008C243.694 85.9809 245.448 83.8618 246.602 82.2415C249.718 82.1991 254.027 82.5033 258.87 84.028C267.089 86.6176 272.484 91.3476 275.183 94.107" stroke="#2ea4ff" stroke-width="1.2" stroke-linecap="round" stroke-linejoin="round"/>
<path d="M252.938 111.595C258.024 108.415 260.345 102.956 258.123 99.4003C255.9 95.8449 249.975 95.5402 244.889 98.7196C239.803 101.899 237.481 107.359 239.704 110.914C241.926 114.47 247.851 114.774 252.938 111.595Z" fill="#000000"/>
<path d="M242.862 121.22C241.748 121.22 240.758 120.417 240.563 119.281C240.344 118.008 241.196 116.798 242.466 116.578C242.622 116.55 246.347 115.846 247.699 112.45C248.739 109.843 247.645 107.412 247.416 106.952C246.839 105.796 247.309 104.395 248.466 103.818C249.623 103.245 251.024 103.712 251.601 104.869C252.142 105.955 253.773 109.836 252.039 114.18C250.186 118.828 245.65 120.771 243.262 121.185C243.128 121.209 242.993 121.22 242.859 121.22H242.862Z" fill="#2ea4ff"/>
<path d="M244.079 190.646C254.799 189.237 261.995 176.723 260.15 162.696C258.306 148.669 248.121 138.441 237.401 139.85C226.68 141.26 219.485 153.773 221.329 167.8C223.173 181.827 233.359 192.056 244.079 190.646Z" fill="#ffffff" stroke="#2ea4ff" stroke-width="1.2" stroke-linecap="round" stroke-linejoin="round"/>
<path d="M223.819 119.472C220.476 127.34 220.791 139.69 222.482 140.504C225.376 141.898 227.375 135.912 229.455 126.456C230.757 124.117 232.062 122.667 233.364 120.328C230.183 120.045 227.003 119.759 223.823 119.476L223.819 119.472Z" fill="#ffffff" stroke="#2ea4ff" stroke-width="1.2" stroke-linecap="round" stroke-linejoin="round"/>
<path d="M217.759 120.848C214.416 128.716 214.731 141.066 216.422 141.88C219.315 143.274 221.314 137.288 223.394 127.832C224.696 125.493 226.002 124.043 227.304 121.704C224.123 121.421 220.943 121.135 217.762 120.852L217.759 120.848Z" fill="#2ea4ff" stroke="#2ea4ff" stroke-width="1.2" stroke-linecap="round" stroke-linejoin="round"/>
<path d="M213.107 115.881C209.764 123.749 210.078 136.099 211.769 136.913C214.663 138.307 216.662 132.321 218.742 122.865C220.044 120.526 221.35 119.076 222.651 116.737C219.471 116.454 216.291 116.168 213.11 115.885L213.107 115.881Z" fill="#ffffff" stroke="#2ea4ff" stroke-width="1.2" stroke-linecap="round" stroke-linejoin="round"/>
<path d="M248.074 134.964C248.091 134.935 248.109 134.911 248.127 134.882L251.141 130.092L246.697 127.549C244.288 122.228 240.641 115.368 237.559 110.897C235.72 108.226 232.391 107.005 229.26 107.847C226.009 108.718 222.061 110.118 218.785 111.562L216.457 110.228L213.687 114.629C213.609 114.739 213.538 114.852 213.475 114.965V114.969C212.902 116.002 212.799 117.272 213.28 118.436C216.623 126.54 227.838 137.695 235.55 140.613C236.519 140.981 237.602 140.896 238.525 140.422C240.733 139.297 242.94 138.172 245.148 137.047C245.636 136.8 246.124 136.549 246.612 136.301C247.207 135.997 247.684 135.547 248.031 135.024H248.038L248.077 134.96L248.074 134.964Z" fill="#2ea4ff" stroke="#2ea4ff" stroke-width="1.2" stroke-linecap="round" stroke-linejoin="round"/>
<path d="M216.259 113.695C219.602 121.8 230.817 132.958 238.529 135.873C239.498 136.241 240.581 136.156 241.508 135.682C243.715 134.557 245.923 133.432 248.13 132.307C248.618 132.059 249.107 131.808 249.595 131.56C251.296 130.694 252.085 128.684 251.41 126.898C249.414 121.605 244.508 111.898 240.549 106.153C238.709 103.482 235.38 102.261 232.249 103.103C227.569 104.359 221.435 106.708 217.957 108.71C216.213 109.712 215.498 111.838 216.266 113.695H216.259Z" fill="#ffffff" stroke="#2ea4ff" stroke-width="1.2" stroke-linecap="round" stroke-linejoin="round"/>
<path d="M250.362 147.346C254.497 147.346 257.848 143.994 257.848 139.86C257.848 135.726 254.497 132.374 250.362 132.374C246.228 132.374 242.877 135.726 242.877 139.86C242.877 143.994 246.228 147.346 250.362 147.346Z" fill="#000000"/>
<path d="M174.861 214.711C165.641 210.455 140.832 198.682 139.36 173.684" stroke="#2ea4ff" stroke-width="1.2" stroke-linecap="round" stroke-linejoin="round"/>
<path d="M221.24 233.305C214.334 225.677 205.154 190.346 223.946 176.999" stroke="#2ea4ff" stroke-width="1.2" stroke-linecap="round" stroke-linejoin="round"/>
<path d="M233.802 197.298L226.175 197.263L233.36 230.234L255.74 224.56L233.802 197.298Z" fill="#2ea4ff" stroke="#2ea4ff" stroke-width="1.2" stroke-linecap="round" stroke-linejoin="round"/>
<path d="M140.832 137.334L101.287 175.354" stroke="#2ea4ff" stroke-width="1.2" stroke-linecap="round" stroke-linejoin="round"/>
<path d="M351.781 259.703L29.9281 186.604L21.0591 307.784L58.6047 313.696H240.407L351.781 259.703Z" fill="#2ea4ff" stroke="#000000" stroke-width="1.2" stroke-linecap="round" stroke-linejoin="round"/>
<path d="M130.533 266.835C118.332 263.177 105.306 259.682 91.4911 256.505C74.3721 252.571 58.0987 249.596 42.8547 247.356C67.7036 236.326 92.5559 225.292 117.405 214.261L177.762 227.835L130.537 266.835H130.533Z" fill="#ffffff" stroke="#ffffff" stroke-width="1.2" stroke-linecap="round" stroke-linejoin="round"/>
<path d="M130.003 259.031C118.137 255.472 105.469 252.076 92.0325 248.988C75.3841 245.16 59.5564 242.27 44.7334 240.09C68.8995 229.36 93.069 218.631 117.235 207.904L173.647 219.547L130.003 259.035V259.031Z" fill="#2ea4ff" stroke="#ffffff" stroke-width="1.2" stroke-linecap="round" stroke-linejoin="round"/>
<path d="M130.735 253.268C119.248 249.136 106.516 245.153 92.6055 241.675C73.9087 237.002 56.5492 234.105 41.0505 232.343C65.8994 225.611 90.352 215.553 114.097 202.347C135.677 207.989 157.572 212.358 179.562 215.373C163.788 229.566 147.482 242.224 130.735 253.265V253.268Z" fill="#ffffff" stroke="#2ea4ff" stroke-width="1.2" stroke-linecap="round" stroke-linejoin="round"/>
<path d="M156.143 221.546C157.738 221.921 159.32 222.299 160.887 222.685" stroke="#000000" stroke-width="1.2" stroke-linecap="round" stroke-linejoin="round"/>
<path d="M112.183 213.133C119.58 214.23 127.24 215.525 135.139 217.05C137.821 217.566 140.471 218.1 143.081 218.645L150.39 220.226" stroke="#000000" stroke-width="1.2" stroke-linecap="round" stroke-linejoin="round"/>
<path d="M103.396 217.834C111.515 218.85 120.412 220.36 129.914 222.582C138.072 224.492 145.59 226.672 152.414 228.943" stroke="#000000" stroke-width="1.2" stroke-linecap="round" stroke-linejoin="round"/>
<path d="M91.9971 222.71C108.437 224.744 134.223 232.375 143.255 235.937" stroke="#000000" stroke-width="1.2" stroke-linecap="round" stroke-linejoin="round"/>
<path d="M118.551 238.781C123.596 240.607 128.312 242.521 132.695 244.459" stroke="#000000" stroke-width="1.2" stroke-linecap="round" stroke-linejoin="round"/>
<path d="M77.4995 228.306C83.2164 229.184 88.8166 230.535 94.4168 231.869" stroke="#000000" stroke-width="1.2" stroke-linecap="round" stroke-linejoin="round"/>
<path d="M114.118 206.73L118.707 202.205L122.803 211.155C123.26 212.153 122.824 213.377 121.802 213.766C118.59 214.99 114.387 207.268 114.118 206.73Z" fill="#ffffff" stroke="#2ea4ff" stroke-width="1.2" stroke-linecap="round" stroke-linejoin="round"/>
<path d="M72.8508 164.086C59.6729 173.701 68.4393 205.633 84.5536 211.463C88.4061 206.277 104.584 205.987 108.437 200.8L103.392 184.159L72.8473 164.086H72.8508Z" fill="#ffffff" stroke="#2ea4ff" stroke-width="1.2" stroke-linecap="round" stroke-linejoin="round"/>
<path d="M103.396 203.252L107.69 198.858L117.454 200.903C120.125 202.064 117.621 208.053 114.819 206.96C110.301 205.495 107.913 204.72 103.392 203.256L103.396 203.252Z" fill="#ffffff" stroke="#2ea4ff" stroke-width="1.2" stroke-linecap="round" stroke-linejoin="round"/>
<path d="M68.8003 76.167L118.696 223.152" stroke="#000000" stroke-width="1.2" stroke-linecap="round" stroke-linejoin="round"/>
<path d="M113.605 223.325C115.303 223.268 116.998 223.208 118.696 223.151L82.0208 115.106C92.549 151.18 103.077 187.254 113.605 223.328V223.325Z" fill="#000000" stroke="#000000" stroke-width="1.2" stroke-linecap="round" stroke-linejoin="round"/>
<path d="M68.8002 76.167C67.4346 78.325 65.7295 81.6292 65.0821 85.8851C64.5054 89.6739 65.1175 91.9416 65.3474 94.9522C66.0231 103.761 61.9866 105.774 61.9512 113.518C61.9088 123.314 66.7908 128.253 67.4417 134.228C68.1882 141.105 61.2154 143.691 64.9724 156.572C68.8002 169.693 79.6539 172.163 85.7564 180.894C87.1114 182.832 88.53 192.575 106.668 187.718C94.0453 150.533 81.4227 113.352 68.8002 76.167Z" fill="#2ea4ff" stroke="#000000" stroke-width="1.2" stroke-linecap="round" stroke-linejoin="round"/>
<path d="M77.9666 128.996C78.5467 129.604 79.1305 130.213 79.7213 130.818C83.4818 134.681 87.2672 138.31 91.0525 141.721" stroke="#000000" stroke-width="1.2" stroke-linecap="round" stroke-linejoin="round"/>
<path d="M77.2661 148.205C80.3722 151.127 83.6481 154.092 87.108 157.078C91.4205 160.803 95.6622 164.259 99.7907 167.464" stroke="#000000" stroke-width="1.2" stroke-linecap="round" stroke-linejoin="round"/>
<path d="M92.6939 228.147C91.1373 226.127 89.3967 223.534 87.8083 220.353C86.4392 217.615 85.4876 215.05 84.8189 212.836C84.6845 212.386 84.589 211.927 84.5571 211.46C84.0619 204.533 87.5536 198.129 91.1019 195.147C92.8566 193.672 95.2799 193.286 97.4167 194.118C102.14 195.954 108.058 200.316 110.308 202.35C116.538 207.77 102.292 236.899 92.6939 228.147Z" fill="#ffffff" stroke="#2ea4ff" stroke-width="1.2" stroke-linecap="round" stroke-linejoin="round"/>
<path d="M109.785 220.895L114.416 216.26L122.779 222.685C124.484 225.069 123.483 229.137 121.562 227.507C117.178 225.048 113.404 223.417 109.785 220.898V220.895Z" fill="#ffffff" stroke="#2ea4ff" stroke-width="1.2" stroke-linecap="round" stroke-linejoin="round"/>
<path d="M118.116 212.546L119.064 211.729L121.898 216.03C122.878 217.52 123.277 219.32 123.016 221.086L122.779 222.681L114.143 215.337L118.116 212.542V212.546Z" fill="#ffffff" stroke="#2ea4ff" stroke-width="1.2" stroke-linecap="round" stroke-linejoin="round"/>
<path d="M105.444 233.269L105.154 234.628C110.305 235.919 114.9 231.472 114.373 230.517C111.5 229.512 108.631 228.508 105.759 227.506L105.444 233.273V233.269Z" fill="#ffffff" stroke="#2ea4ff" stroke-width="1.2" stroke-linecap="round" stroke-linejoin="round"/>
<path d="M93.7481 228.947L104.085 234.519C108.019 235.414 109.158 230.45 108.016 229.24C103.852 225.589 100.905 224.178 96.741 220.527C94.07 219.285 91.3142 226.265 93.7446 228.943L93.7481 228.947Z" fill="#ffffff" stroke="#2ea4ff" stroke-width="1.2" stroke-linecap="round" stroke-linejoin="round"/>
<path d="M100.484 212.786L110.793 221.775C113.05 223.222 116.771 219.087 114.415 216.26C110.305 211.732 109.183 210.907 104.786 207.09C102.38 205.042 98.1667 210.295 100.484 212.786Z" fill="#ffffff" stroke="#2ea4ff" stroke-width="1.2" stroke-linecap="round" stroke-linejoin="round"/>
<path d="M105.129 207.342L114.773 215.889C117.03 217.336 121.049 214.017 118.693 211.191C114.582 206.662 114.178 205.778 109.785 201.961C107.931 200.769 102.812 204.855 105.129 207.342Z" fill="#ffffff" stroke="#2ea4ff" stroke-width="1.2" stroke-linecap="round" stroke-linejoin="round"/>
<path d="M107.581 228.635C107.379 228.402 106.279 227.086 106.548 225.437C106.845 223.601 108.723 222.073 111.097 222.041C113.828 223.753 120.483 225.954 123.649 227.503C125.715 228.511 123.964 231.819 121.997 231.819C119.846 231.819 110.987 230.447 107.577 228.632L107.581 228.635Z" fill="#ffffff" stroke="#2ea4ff" stroke-width="1.2" stroke-linecap="round" stroke-linejoin="round"/>
<path d="M96.1186 220.226L106.378 227.97C107.071 228.494 107.977 228.653 108.805 228.384C109.466 228.168 110.23 227.768 110.874 227.029C111.773 225.992 111.978 224.811 111.982 223.941C111.982 223.212 111.649 222.522 111.101 222.041C107.181 218.602 104.407 216.221 100.488 212.783C97.1551 211.46 93.7483 218.263 96.1186 220.222V220.226Z" fill="#ffffff" stroke="#2ea4ff" stroke-width="1.2" stroke-linecap="round" stroke-linejoin="round"/>
</g>
<path d="M181.618 260.007L246.372 249.157C247.571 248.955 248.753 249.419 249.368 250.335L264.453 273.44C265.246 274.618 264.499 276.146 262.992 276.429L192.67 292.979C191.438 293.212 190.239 292.522 189.825 291.348L180.167 262.392C179.803 261.362 180.514 260.191 181.614 260.007H181.618Z" fill="#2ea4ff" stroke="#ffffff" stroke-width="1.2" stroke-linecap="round" stroke-linejoin="round"/>
<path d="M184.462 250.997L268.249 236.955C269.799 236.697 271.327 237.295 272.13 238.48L291.647 268.377C292.673 269.898 291.708 271.88 289.758 272.248L198.765 293.665C197.173 293.965 195.624 293.074 195.082 291.556L182.584 254.088C182.113 252.758 183.033 251.241 184.459 251L184.462 250.997Z" fill="#2ea4ff" stroke="#ffffff" stroke-width="1.2" stroke-linecap="round" stroke-linejoin="round"/>
<path d="M291.722 270.921L235.104 254.036C233.307 253.53 231.322 254.039 229.971 255.352L196.802 293.425" stroke="#ffffff" stroke-width="1.2" stroke-linecap="round" stroke-linejoin="round"/>
<path d="M226.175 259.031L182.782 252.196" stroke="#ffffff" stroke-width="1.2" stroke-linecap="round" stroke-linejoin="round"/>
<path d="M270.067 237.047L242.601 256.144" stroke="#ffffff" stroke-width="1.2" stroke-linecap="round" stroke-linejoin="round"/>
<path d="M186.899 242.007L275.452 219.564C276.93 219.189 278.491 219.734 279.414 220.951L301.114 249.521C302.214 250.972 301.56 253.073 299.834 253.639L209.024 283.522C207.273 284.099 205.359 283.335 204.485 281.711L185.219 245.832C184.405 244.314 185.233 242.432 186.903 242.011L186.899 242.007Z" fill="#ffffff" stroke="#2ea4ff" stroke-width="1.2" stroke-linecap="round" stroke-linejoin="round"/>
<path d="M301.464 252.1L244.232 240.652C242.265 240.26 240.245 241.003 239.006 242.58L206.757 283.558" stroke="#2ea4ff" stroke-width="1.2" stroke-linecap="round" stroke-linejoin="round"/>
<path d="M235.511 247.017L185.099 243.585" stroke="#2ea4ff" stroke-width="1.2" stroke-linecap="round" stroke-linejoin="round"/>
<path d="M277.235 219.546L252.319 242.269" stroke="#2ea4ff" stroke-width="1.2" stroke-linecap="round" stroke-linejoin="round"/>
<path d="M228.358 201.621C226.794 199.683 225.903 197.291 225.821 194.801C225.659 189.94 226.309 182.206 230.887 174.328C236.091 165.363 243.552 161.076 246.672 159.505C259.674 171.381 272.678 183.253 285.679 195.13L277.543 237.854C262.228 237.044 237.043 212.383 228.358 201.621Z" fill="#ffffff" stroke="#2ea4ff" stroke-width="1.2" stroke-linecap="round" stroke-linejoin="round"/>
<path d="M236.279 167.178L251.141 183.526" stroke="#2ea4ff" stroke-width="1.2" stroke-linecap="round" stroke-linejoin="round"/>
<path d="M239.017 145.542C240.407 140.571 256.033 131.578 260.158 133.464C266.261 142.393 272.431 151.977 278.551 162.218C286.762 175.969 293.901 189.271 300.113 201.894C287.049 205.983 273.98 210.073 260.915 214.162L239.017 145.545V145.542Z" fill="#ffffff" stroke="#2ea4ff" stroke-width="1.2" stroke-linecap="round" stroke-linejoin="round"/>
<path d="M243.457 140.352L270.067 205.152" stroke="#2ea4ff" stroke-width="1.2" stroke-linecap="round" stroke-linejoin="round"/>
<path d="M265.423 193.842C264.06 194.606 257.339 198.037 257.339 202.955" stroke="#2ea4ff" stroke-width="1.2" stroke-linecap="round" stroke-linejoin="round"/>
<path d="M283.585 218.121C294.481 214.831 302.05 207.982 300.493 202.824C298.935 197.665 288.84 196.15 277.945 199.439C267.05 202.729 259.48 209.577 261.038 214.736C262.595 219.895 272.69 221.41 283.585 218.121Z" fill="#000000" stroke="#000000" stroke-width="1.2" stroke-linecap="round" stroke-linejoin="round"/>
<path d="M299.94 217.407C298.259 207.526 291.234 200.571 284.243 201.872L277.73 203.086L278.165 205.637C275.02 209.45 273.527 215.606 274.635 222.119C275.742 228.632 279.173 233.871 283.383 236.316L283.818 238.866L290.331 237.653C297.318 236.351 301.624 227.287 299.943 217.407H299.94Z" fill="#ffffff" stroke="#2ea4ff" stroke-width="1.2" stroke-linecap="round" stroke-linejoin="round"/>
<path d="M283.528 238.921C290.552 237.84 295.009 228.933 293.484 219.026C291.96 209.12 285.03 201.966 278.007 203.047C270.983 204.128 266.526 213.035 268.051 222.941C269.575 232.848 276.505 240.002 283.528 238.921Z" fill="#ffffff" stroke="#2ea4ff" stroke-width="1.2" stroke-linecap="round" stroke-linejoin="round"/>
<path d="M278.466 230.163C281.614 229.678 283.611 225.687 282.928 221.247C282.245 216.807 279.139 213.601 275.992 214.086C272.844 214.57 270.846 218.562 271.529 223.001C272.213 227.441 275.318 230.647 278.466 230.163Z" stroke="#2ea4ff" stroke-width="1.2" stroke-linecap="round" stroke-linejoin="round"/>
<path d="M237.266 36.4209C210.578 18.4211 180.79 6.95894 150.132 2.04153C149.064 1.87172 147.978 2.22903 147.21 2.99671" stroke="#ffffff" stroke-width="2" stroke-linecap="round" stroke-linejoin="round"/>
<path d="M37 115.658V292.639C37.0035 294.496 38.5 295.996 40.3573 295.996H217.338C218.909 295.996 220.416 295.37 221.527 294.259L228.79 286.996" stroke="#ffffff" stroke-width="2" stroke-linecap="round" stroke-linejoin="round"/>
</svg>